<svg xmlns="http://www.w3.org/2000/svg" width="102.018" height="104.1" viewBox="0 0 102.018 104.1"><path fill="#4285f4" d="M180.518,117.4a44.6,44.6,0,0,0-1.1-10.641H130.55v19.316h28.685a25.436,25.436,0,0,1-10.641,16.887l-.1.647,15.452,11.97,1.07.107c9.831-9.08,15.5-22.44,15.5-38.286" data-name="Path 168" transform="translate(-78.5 -64.196)"/><path fill="#34a853" d="M60.423,198.126c14.053,0,25.851-4.627,34.469-12.608L78.467,172.794C74.072,175.86,68.173,178,60.423,178A31.335,31.335,0,0,1,30.812,156.37l-.61.052L14.135,168.856l-.21.584a52.012,52.012,0,0,0,46.5,28.686" data-name="Path 169" transform="translate(-8.373 -94.026)"/><path fill="#fbbc05" d="M22.439,105.224A32.044,32.044,0,0,1,20.7,94.93a33.672,33.672,0,0,1,1.677-10.294l-.029-.69L6.084,71.312l-.532.253a51.94,51.94,0,0,0,0,46.729l16.887-13.07" data-name="Path 170" transform="translate(0 -42.88)"/><path fill="#eb4335" d="M60.423,20.126a28.848,28.848,0,0,1,20.126,7.75l14.69-14.343A50.008,50.008,0,0,0,60.423,0a52.012,52.012,0,0,0-46.5,28.685L30.754,41.756a31.463,31.463,0,0,1,29.669-21.63" data-name="Path 171" transform="translate(-8.373)"/></svg>